<svg width="1673" height="400" viewBox="0 0 1673 400" fill="none" xmlns="http://www.w3.org/2000/svg">
<path d="M1495.94 115L1486.19 186.75C1485.36 192.083 1484.11 197.25 1482.44 202.25C1480.78 207.083 1478.61 212.167 1475.94 217.5C1476.28 222.5 1476.61 228.25 1476.94 234.75C1477.44 241.25 1477.44 246.917 1476.94 251.75L1471.44 290H1425.94L1450.44 115H1495.94ZM1568.44 165.75C1565.11 179.083 1559.86 190.417 1552.69 199.75C1545.69 209.083 1537.61 216.917 1528.44 223.25C1519.28 229.417 1509.61 234.667 1499.44 239C1489.28 243.167 1479.44 246.75 1469.94 249.75L1465.69 221.75C1474.36 218.417 1482.61 214 1490.44 208.5C1498.28 202.833 1504.94 196.333 1510.44 189C1515.94 181.667 1519.69 173.917 1521.69 165.75H1568.44ZM1517.69 220C1523.19 222.5 1527.53 225.667 1530.69 229.5C1534.03 233.167 1536.61 237.083 1538.44 241.25L1561.44 290H1514.69L1487.94 231L1517.69 220Z" fill="#0171E3"/>
<path d="M1375.84 162.25C1384.67 162.25 1393.92 163 1403.59 164.5C1413.26 165.833 1421.76 168.083 1429.09 171.25L1422.84 199C1414.34 198.833 1406.59 198.75 1399.59 198.75C1392.59 198.75 1386.59 198.75 1381.59 198.75C1375.42 198.75 1370.51 199.667 1366.84 201.5C1363.17 203.167 1360.34 206.083 1358.34 210.25C1356.34 214.25 1354.84 220 1353.84 227.5C1352.67 235.667 1352.51 241.833 1353.34 246C1354.17 250.167 1356.17 253 1359.34 254.5C1362.51 256 1367.09 256.75 1373.09 256.75C1376.26 256.75 1380.01 256.75 1384.34 256.75C1388.84 256.583 1393.59 256.417 1398.59 256.25C1403.76 255.917 1408.84 255.5 1413.84 255L1417.09 284C1409.26 287.333 1400.76 289.667 1391.59 291C1382.42 292.333 1373.59 293 1365.09 293C1350.42 293 1338.34 290.75 1328.84 286.25C1319.34 281.75 1312.67 274.583 1308.84 264.75C1305.17 254.917 1304.42 242 1306.59 226C1308.76 210.833 1312.34 198.583 1317.34 189.25C1322.34 179.917 1329.51 173.083 1338.84 168.75C1348.34 164.417 1360.67 162.25 1375.84 162.25Z" fill="#0171E3"/>
<path d="M1243.56 162.25C1259.89 162.25 1272.48 164 1281.31 167.5C1290.31 171 1296.31 176.083 1299.31 182.75C1302.48 189.25 1303.31 197.417 1301.81 207.25C1300.81 214.75 1298.23 220.667 1294.06 225C1290.06 229.167 1284.48 232.333 1277.31 234.5C1270.14 236.5 1261.06 237.917 1250.06 238.75L1185.31 244L1188.31 221.25L1239.56 216C1243.39 215.667 1246.56 215.167 1249.06 214.5C1251.73 213.667 1253.81 212.417 1255.31 210.75C1256.98 208.917 1257.98 206.25 1258.31 202.75C1258.81 199.917 1258.64 197.75 1257.81 196.25C1256.98 194.75 1255.39 193.75 1253.06 193.25C1250.89 192.583 1247.64 192.333 1243.31 192.5C1239.14 192.5 1235.64 193 1232.81 194C1229.98 195 1227.56 196.667 1225.56 199C1223.73 201.167 1222.14 204.417 1220.81 208.75C1219.64 212.917 1218.48 218.417 1217.31 225.25C1215.81 234.583 1215.39 241.583 1216.06 246.25C1216.89 250.917 1218.98 254 1222.31 255.5C1225.81 257 1230.64 257.75 1236.81 257.75C1240.64 257.75 1245.48 257.667 1251.31 257.5C1257.14 257.167 1263.23 256.833 1269.56 256.5C1276.06 256 1281.73 255.5 1286.56 255L1289.81 283C1284.31 285.333 1278.31 287.333 1271.81 289C1265.31 290.5 1258.73 291.5 1252.06 292C1245.39 292.667 1238.89 293 1232.56 293C1214.73 293 1200.98 290.5 1191.31 285.5C1181.64 280.333 1175.23 272.833 1172.06 263C1168.89 253 1168.06 240.833 1169.56 226.5C1171.06 213.5 1173.64 202.833 1177.31 194.5C1181.14 186 1186.06 179.5 1192.06 175C1198.23 170.333 1205.56 167.083 1214.06 165.25C1222.73 163.25 1232.56 162.25 1243.56 162.25Z" fill="#0171E3"/>
<path d="M1127.47 162.25C1139.8 162.25 1148.8 165.333 1154.47 171.5C1160.3 177.667 1162.39 186.417 1160.72 197.75L1147.72 290H1102.47L1113.72 210.5C1114.22 206.5 1113.97 203.917 1112.97 202.75C1112.14 201.417 1110.14 200.75 1106.97 200.75C1102.14 200.75 1097.22 202 1092.22 204.5C1087.22 206.833 1080.97 211 1073.47 217L1066.72 196.5C1077.72 184.667 1088.39 176 1098.72 170.5C1109.05 165 1118.64 162.25 1127.47 162.25ZM1090.22 115L1084.72 155.75C1083.55 164.25 1081.72 172.417 1079.22 180.25C1076.89 188.083 1074.72 194.333 1072.72 199L1077.97 201.5L1065.72 290H1020.22L1044.72 115H1090.22Z" fill="#0171E3"/>
<path d="M976.289 114.5C984.789 114.5 992.123 114.75 998.289 115.25C1004.46 115.75 1010.12 116.5 1015.29 117.5C1020.46 118.333 1025.62 119.5 1030.79 121L1025.29 155.25C1019.46 154.917 1014.04 154.75 1009.04 154.75C1004.04 154.583 998.789 154.5 993.289 154.5C987.956 154.333 981.539 154.25 974.039 154.25C968.706 154.25 964.206 154.917 960.539 156.25C956.873 157.417 953.706 159.75 951.039 163.25C948.539 166.75 946.373 171.917 944.539 178.75C942.706 185.583 941.123 194.5 939.789 205.5C937.956 218.167 937.123 228 937.289 235C937.623 241.833 939.373 246.583 942.539 249.25C945.873 251.917 951.123 253.25 958.289 253.25C970.456 253.25 980.539 253.083 988.539 252.75C996.539 252.25 1004.46 251.667 1012.29 251L1014.04 285.5C1005.21 288.167 996.456 290.083 987.789 291.25C979.123 292.417 968.623 293 956.289 293C937.789 293 923.206 290.083 912.539 284.25C901.873 278.417 894.789 268.833 891.289 255.5C887.789 242.167 887.623 224.333 890.789 202C893.289 184.833 896.539 170.583 900.539 159.25C904.539 147.917 909.789 139 916.289 132.5C922.789 126 930.956 121.417 940.789 118.75C950.623 115.917 962.456 114.5 976.289 114.5Z" fill="#0171E3"/>
<path d="M882.285 165.75L865.035 290H819.785L837.035 165.75H882.285ZM875.785 109.75C880.618 109.75 884.118 110.917 886.285 113.25C888.452 115.583 889.285 119.167 888.785 124L887.035 137.25C886.035 145.583 881.035 149.75 872.035 149.75H854.035C844.368 149.75 840.118 145 841.285 135.5L843.035 122.25C843.868 113.917 848.785 109.75 857.785 109.75H875.785Z" fill="#0171E3"/>
<path d="M810.103 115L791.103 248C790.436 251.833 790.853 254.417 792.353 255.75C793.853 257.083 797.02 257.75 801.853 257.75H812.353L814.853 288C812.353 289.167 809.02 290.083 804.853 290.75C800.686 291.583 796.52 292.167 792.353 292.5C788.186 293 784.77 293.25 782.103 293.25C769.27 293.25 759.436 290.167 752.603 284C745.936 277.667 743.27 269.083 744.603 258.25L764.853 115H810.103Z" fill="#0171E3"/>
<path d="M681.323 162.25C697.656 162.25 710.239 164 719.073 167.5C728.073 171 734.073 176.083 737.073 182.75C740.24 189.25 741.073 197.417 739.573 207.25C738.573 214.75 735.989 220.667 731.823 225C727.823 229.167 722.239 232.333 715.073 234.5C707.906 236.5 698.823 237.917 687.823 238.75L623.073 244L626.073 221.25L677.323 216C681.156 215.667 684.323 215.167 686.823 214.5C689.489 213.667 691.573 212.417 693.073 210.75C694.739 208.917 695.739 206.25 696.073 202.75C696.573 199.917 696.406 197.75 695.573 196.25C694.739 194.75 693.156 193.75 690.823 193.25C688.656 192.583 685.406 192.333 681.073 192.5C676.906 192.5 673.406 193 670.573 194C667.739 195 665.323 196.667 663.323 199C661.489 201.167 659.906 204.417 658.573 208.75C657.406 212.917 656.239 218.417 655.073 225.25C653.573 234.583 653.156 241.583 653.823 246.25C654.656 250.917 656.739 254 660.073 255.5C663.573 257 668.406 257.75 674.573 257.75C678.406 257.75 683.239 257.667 689.073 257.5C694.906 257.167 700.989 256.833 707.323 256.5C713.823 256 719.489 255.5 724.323 255L727.573 283C722.073 285.333 716.073 287.333 709.573 289C703.073 290.5 696.489 291.5 689.823 292C683.156 292.667 676.656 293 670.323 293C652.489 293 638.739 290.5 629.073 285.5C619.406 280.333 612.989 272.833 609.823 263C606.656 253 605.823 240.833 607.323 226.5C608.823 213.5 611.406 202.833 615.073 194.5C618.906 186 623.823 179.5 629.823 175C635.989 170.333 643.323 167.083 651.823 165.25C660.489 163.25 670.323 162.25 681.323 162.25Z" fill="#0171E3"/>
<path d="M510 117.5L485.75 290H438.75L463 117.5H510ZM553.75 181.25L548.75 215.5H494.5L499 181.25H553.75ZM607 117.5L582.75 290H535.75L560 117.5H607Z" fill="#0171E3"/>
<path d="M135.84 135.838C132.396 144.774 121.814 149.338 112.164 146.102C102.538 142.873 97.7125 133.015 101.154 124.088C104.598 115.152 115.179 110.588 124.829 113.824C134.455 117.053 139.281 126.911 135.84 135.838ZM121.378 122.297C116.938 120.771 111.87 122.827 110.208 127.142C108.544 131.358 110.816 136.096 115.396 137.63C119.844 139.158 124.904 136.987 126.563 132.786C128.232 128.562 125.837 123.829 121.378 122.297Z" fill="#0171E3" stroke="#0171E3"/>
<path d="M154.728 105.009L154.074 104.797V104.838C151.237 103.466 149.854 100.327 150.973 97.4742C152.193 94.3669 155.756 92.7074 159.018 93.8748C159.019 93.8752 159.02 93.8756 159.021 93.876L236.493 122.863L236.5 122.866L236.507 122.868C237.266 123.127 238.065 123.451 238.68 123.871C239.301 124.295 239.648 124.755 239.686 125.268L239.688 125.286L239.69 125.305C239.733 125.592 239.71 126.008 239.613 126.512C239.518 127.008 239.358 127.558 239.154 128.1C238.736 129.207 238.168 130.187 237.66 130.629C237.255 130.977 236.644 131.109 235.876 131.06C235.116 131.012 234.285 130.791 233.533 130.534L233.533 130.534L233.525 130.532L154.728 105.009Z" fill="#0171E3" stroke="#0171E3"/>
<path d="M288.801 258.464L288.872 258.26L288.772 258.068L288.769 258.063C289.553 256.216 290.831 255.105 292.262 254.569C293.757 254.008 295.451 254.064 296.968 254.619C298.486 255.174 299.794 256.217 300.537 257.589C301.274 258.949 301.476 260.668 300.728 262.639C300.589 263.003 300.451 263.368 300.314 263.733C299.131 266.866 297.952 269.992 296.203 272.597C294.267 275.478 291.65 277.695 287.571 278.504L287.565 278.506C281.145 279.868 274.709 277.631 268.58 275.501C268.252 275.387 267.925 275.273 267.598 275.161C267.598 275.161 267.598 275.161 267.598 275.16L155.76 236.186L155.76 236.186L155.757 236.185C153.657 235.467 152.42 234.18 151.838 232.724C151.25 231.255 151.31 229.568 151.897 228.04C153.07 224.986 156.283 222.686 160.38 224.104C160.38 224.104 160.38 224.105 160.38 224.105L266.94 261.293L266.941 261.293C268.168 261.716 269.401 262.162 270.642 262.611C273.375 263.599 276.144 264.601 278.955 265.399L278.955 265.399L278.968 265.402C279.138 265.446 279.327 265.496 279.529 265.55C280.274 265.748 281.204 265.996 282.094 266.134C282.663 266.222 283.242 266.271 283.77 266.229C284.291 266.187 284.81 266.054 285.219 265.738C285.638 265.435 286.022 264.898 286.364 264.313C286.717 263.706 287.059 262.983 287.372 262.252C287.958 260.885 288.457 259.452 288.743 258.629C288.763 258.571 288.783 258.516 288.801 258.464Z" fill="#0171E3" stroke="#0171E3"/>
<path d="M261.422 159.067L262.088 159.301V159.198C285.935 167.771 302.568 188.589 302.03 212.817L302.03 212.818C301.757 225.991 298.072 237.503 291.501 244.658C288.221 248.23 284.222 250.718 279.557 251.799C274.891 252.88 269.527 252.561 263.509 250.466L197.321 227.433L197.321 227.432C187.054 223.876 181.568 217.188 177.489 209.096C175.517 205.184 173.88 200.953 172.188 196.584C172.126 196.423 172.063 196.261 172 196.099C170.245 191.567 168.419 186.899 166.101 182.345C164.099 178.368 158.83 170.692 152.536 163.246C146.472 156.073 139.39 149.033 133.292 145.726C135.943 143.435 138.087 140.496 139.448 137L139.448 137L139.45 136.995C140.795 133.443 141.188 129.704 140.625 126.115L188.733 146.075L188.965 146.171L189.18 146.043C200.923 139.055 213.767 142.414 228.057 147.342L228.073 147.347L228.089 147.352L228.857 147.561L229.596 147.763L229.483 147.005C229.389 146.381 229.476 145.839 229.68 145.152C230.579 142.996 233.148 141.786 235.399 142.626L235.406 142.629L238.04 143.571L238.502 143.736L238.676 143.278L245.698 124.755C246.471 122.921 248.6 121.985 250.553 122.632C252.503 123.382 253.442 125.406 252.778 127.221C252.777 127.222 252.777 127.223 252.777 127.224L245.754 145.75L245.574 146.225L246.051 146.397L249.23 147.547C249.23 147.547 249.231 147.548 249.232 147.548C251.537 148.41 252.768 150.859 251.905 152.961L251.896 152.984L251.889 153.008C251.706 153.617 251.341 154.068 250.815 154.569L250.225 155.132L250.995 155.403L261.422 159.067ZM267.79 223.665L267.792 223.666C274.35 225.912 280.436 224.91 284.761 221.41C289.082 217.911 291.567 211.982 291.065 204.526C290.673 197.921 287.858 190.999 283.531 185.165C279.203 179.331 273.337 174.548 266.803 172.258L266.801 172.257L259.227 169.64L259.225 169.639C252.691 167.402 247.447 167.995 243.243 170.768C239.068 173.522 236 178.374 233.68 184.488C231.36 190.598 230.119 196.954 231.117 202.384C232.123 207.855 235.399 212.349 241.994 214.661L241.995 214.662L267.79 223.665Z" fill="#0171E3" stroke="#0171E3"/>
<path d="M327.395 152.301L328.05 152.514V152.457C330.858 153.775 332.258 157.051 331.134 159.973C329.916 163.139 326.368 164.818 323.127 163.635C323.126 163.635 323.124 163.634 323.123 163.634L259.081 138.868L259.073 138.865L259.065 138.862C258.314 138.6 257.545 138.272 256.946 137.845C256.346 137.419 255.974 136.937 255.892 136.379C255.849 136.089 255.878 135.667 255.983 135.153C256.086 134.648 256.255 134.087 256.467 133.533C256.897 132.405 257.468 131.394 257.936 130.937C258.334 130.549 258.925 130.416 259.681 130.477C260.435 130.538 261.26 130.787 262.021 131.051L262.021 131.052L262.031 131.055L327.395 152.301Z" fill="#0171E3" stroke="#0171E3"/>
<line x1="78" y1="290.421" x2="350" y2="290.421" stroke="#0171E3" stroke-width="6"/>
</svg>
